<svg xmlns="http://www.w3.org/2000/svg" width="244" height="73.246" viewBox="0 0 244 73.246"><g id="logo_guabi_natural" transform="translate(-290.2 -336)"><path id="Caminho_7" data-name="Caminho 7" d="M1190,829.7c0,.11.012.231.012.341h0C1190.012,829.919,1190,829.81,1190,829.7Z" transform="translate(-790.265 -433.601)" fill="#285531"></path><g id="Grupo_2" data-name="Grupo 2" transform="translate(399.722 395.576)"><path id="Caminho_8" data-name="Caminho 8" d="M1189.949,826.252h-.024c0-.11-.012-.231-.012-.341s-.012-.231-.012-.341v-.17A6.423,6.423,0,0,0,1189.949,826.252Z" transform="translate(-1189.9 -825.4)" fill="#285531"></path></g><path id="Caminho_9" data-name="Caminho 9" d="M1650.032,336c-6.866,2.788-12.441,10.98-12.125,19.879,7.718-2.861,12.563-11.212,12.125-19.879Z" transform="translate(-1183.637)" fill="#285531"></path><path id="Caminho_10" data-name="Caminho 10" d="M1733.852,381.4c-4.528,2.106-8.022,7.8-7.511,13.78,5.113-2.179,8.107-7.961,7.511-13.78Z" transform="translate(-1261.273 -39.873)" fill="#285531"></path><path id="Caminho_11" data-name="Caminho 11" d="M1539.753,390.88c.621-6.354-3.555-12.563-9.739-15.18-.377,5.721,3.433,12.392,9.739,15.18Z" transform="translate(-1088.867 -34.867)" fill="#285531"></path><path id="Caminho_12" data-name="Caminho 12" d="M1655.7,564.031c4.7,5.271,12.867,6.525,19.635,3.457-4.358-4.6-12.636-6.5-19.635-3.457Z" transform="translate(-1199.275 -198.973)" fill="#285531"></path><path id="Caminho_13" data-name="Caminho 13" d="M1757.7,522.231c3.384,2.24,8.132,1.741,11.443-.962a10.436,10.436,0,0,0-11.443.962Z" transform="translate(-1288.858 -161.593)" fill="#285531"></path><path id="Caminho_14" data-name="Caminho 14" d="M2098.176,629.228h-26.939a.288.288,0,0,1-.207-.487,6.193,6.193,0,0,0,1.278-3.786V592.684a44.166,44.166,0,0,0-.511-5.855.291.291,0,0,1,.292-.329c6.634.073,8.631,2.3,8.631,6.184v32.344h12.7C2098.176,625.028,2098.176,629.009,2098.176,629.228Z" transform="translate(-1563.976 -220.006)" fill="#285531"></path><path id="Caminho_15" data-name="Caminho 15" d="M1473.139,647.747l-3.433-4.541-10.968-15.022c6.525-1.12,11.017-4.894,11.017-10.067,0-6.574-5.977-10.518-13.171-10.518h-16.19v.012h-1.156a.287.287,0,0,0-.207.487c1.473,1.534,1.29,4.638,1.29,4.638l-.012,28.838a44.19,44.19,0,0,1-.511,5.855.292.292,0,0,0,.292.329c8.813-.122,8.631-2.642,8.631-7.012V626.322l12.453,16.884c2.982,3.713,5.04,4.516,11.966,4.553Zm-24.4-21.461V611.313c2.982,0,4.833-.11,6.744-.11,4.1,0,7.535,2.483,7.535,7.036a7.821,7.821,0,0,1-7.815,8.046Z" transform="translate(-1008.911 -238.538)" fill="#285531"></path><path id="Caminho_16" data-name="Caminho 16" d="M1141.382,607.712H1140.3V607.7h-1.12a4.026,4.026,0,0,0-4.029,4.029v22.606l-.024-.122a8.057,8.057,0,0,1-16.069.852h-.024c0-.11-.012-.231-.012-.341s-.012-.231-.012-.341V613.9c0-3.908-1.777-5.88-7.462-6.147-.207-.012-.426-.024-.645-.024h-1.436a.281.281,0,0,0-.195.487c1.473,1.534,1.278,4.674,1.278,4.674l.061-.3v23.482c0,6.525,6.7,11.808,14.839,11.808s14.851-5.283,14.851-11.808V612.5c0-.876.122-3.092,1.29-4.3A.291.291,0,0,0,1141.382,607.712Z" transform="translate(-719.285 -238.625)" fill="#285531"></path><path id="Caminho_17" data-name="Caminho 17" d="M1121.192,607.712h-.292V607.7A2.339,2.339,0,0,0,1121.192,607.712Z" transform="translate(-729.577 -238.625)" fill="#285531"></path><path id="Caminho_18" data-name="Caminho 18" d="M1123.945,607.8v.024c-.207-.012-.426-.024-.645-.024Z" transform="translate(-731.685 -238.713)" fill="#285531"></path><path id="Caminho_19" data-name="Caminho 19" d="M1364.712,647.565l-.012-.037V647.2C1364.7,647.419,1364.712,647.565,1364.712,647.565Z" transform="translate(-943.699 -273.317)" fill="#285531"></path><path id="Caminho_20" data-name="Caminho 20" d="M1759.327,631.744a48.929,48.929,0,0,1-2.544-4.735l-16.835-36.994a.281.281,0,0,0-.511,0L1722.6,627a50.533,50.533,0,0,1-2.8,5.161l.012.012h.195c4.139-.049,6.525-1.376,8.022-5.174l4.553-10.006h10.505L1747.7,627c1.936,3.7,3.981,5.113,11.382,5.174A.277.277,0,0,0,1759.327,631.744ZM1734.1,613.119l3.737-8.789,3.737,8.789Z" transform="translate(-1255.572 -222.948)" fill="#285531"></path><path id="Caminho_21" data-name="Caminho 21" d="M624.4,613.119l3.737-8.789,3.737,8.789Zm5.855-23.1a.291.291,0,0,0-.523,0L612.912,627a51.617,51.617,0,0,1-2.812,5.174c4.273,0,6.72-1.3,8.241-5.174l4.553-10.006h10.518L638.025,627c1.936,3.7,3.981,5.113,11.382,5.174a.287.287,0,0,0,.243-.438A45.955,45.955,0,0,1,647.094,627Z" transform="translate(-280.958 -222.948)" fill="#285531"></path><path id="Caminho_22" data-name="Caminho 22" d="M304.077,444.865h-3.25c-.95,0-1.923.024-2.763.024a7.636,7.636,0,1,1-.45-15.265c.4-.024.962-.024,1.4-.024,1.887,0,4.334.122,4.358.122l.28.012v.292c0,.645-.365,2.009-1.643,1.753l-.073-.012a14.628,14.628,0,0,0-3.871-.438c-2.715,0-4.675,2.5-4.675,5.928,0,3.2,2.143,5.892,4.675,5.892a17.115,17.115,0,0,0,2.082-.158c.146-.024.292-.037.45-.049v-3.469a1.59,1.59,0,0,1,1.583-1.595h1.5v5.393a2.277,2.277,0,0,0,.487,1.4A.119.119,0,0,1,304.077,444.865Z" transform="translate(0 -82.206)" fill="#285531"></path><path id="Caminho_23" data-name="Caminho 23" d="M661.4,456.155v0Zm0-11.455v0Z" transform="translate(-326.013 -95.468)" fill="#285531"></path><path id="Caminho_24" data-name="Caminho 24" d="M666.154,437.277a4.072,4.072,0,0,0,1.972-3.1c0-2.349-2.386-4.273-5.32-4.273-1.023,0-2.045.024-3.068.037-.67.012-1.436.073-2.106.073h-.414a.1.1,0,0,0-.073.183,2.229,2.229,0,0,1,.475,1.315v12.112a2.288,2.288,0,0,1-.475,1.315.1.1,0,0,0,.073.183h.4c.925,0,1.789-.024,2.715,0s2.033,0,2.958,0c3.1,0,5.636-1.923,5.636-4.285C668.93,439.48,667.859,438.129,666.154,437.277Zm-8.521,6.172v0Zm0-11.455v0Zm3.068-.353.828-.036c.292-.012.584-.024.852-.024a2.519,2.519,0,0,1,2.593,2.483,2.56,2.56,0,0,1-2.593,2.69c-.329,0-.657,0-.986-.012-.231,0-.463-.012-.694-.012Zm2.3,11.808c-.5,0-.962-.012-1.4-.024-.3-.012-.609-.024-.9-.024v-5.113c.572-.012,1.595-.024,2.179-.024a2.68,2.68,0,0,1,2.9,2.69A2.617,2.617,0,0,1,663,443.449Z" transform="translate(-322.246 -82.469)" fill="#285531"></path><path id="Caminho_25" data-name="Caminho 25" d="M775.967,431.083a2.307,2.307,0,0,0-.487,1.449v13.488H772.4V433.335c0-1.023,0-2.435,2.995-2.435h.523A.105.105,0,0,1,775.967,431.083Z" transform="translate(-423.501 -83.348)" fill="#285531"></path><g id="Grupo_3" data-name="Grupo 3" transform="translate(358.415 354.406)"><path id="Caminho_26" data-name="Caminho 26" d="M965.644,487.906a26.908,26.908,0,0,1-6.294,3.749,39.065,39.065,0,0,1-7.5,2.045,134.481,134.481,0,0,1-15,1.461c-.475.024-27.11.3-31.711.292-9.215-.012-18.284.049-27.548,0-1.424-.012-2.836-.012-4.236-.012v46.295a.283.283,0,0,1-.28.28h-2.763a5.588,5.588,0,0,1-5.588-5.588V495.4h-1.035c-2.605-.012-6.756.11-9.544-.012-2.228-.1-3.275-1.485-3.567-3.506a10.238,10.238,0,0,1,0-1.059c0-.231.11-.3.316-.3,17.773.012,36.6.037,54,.28,5.892.073,41.523.463,46.356.146a42.643,42.643,0,0,0,7.316-1.1,30.419,30.419,0,0,0,6.6-2.654C965.328,487.443,965.474,487.675,965.644,487.906Z" transform="translate(-850.567 -487.2)" fill="#285531"></path></g><path id="Caminho_27" data-name="Caminho 27" d="M331.791,587.087a.28.28,0,0,0-.207-.475l-4.042-.012a2.569,2.569,0,0,0-2.569,2.569v23.36L297.3,588.109a.285.285,0,0,0-.475.207l-.085,34.706s.195,4.066-1.315,5.77a.28.28,0,0,0,.207.475h1.1v.061h2.946a2.569,2.569,0,0,0,2.569-2.569V605.907l28.144,23.421.085-36.471S330.269,588.791,331.791,587.087Z" transform="translate(-4.524 -220.094)" fill="#285531"></path><g id="Grupo_5" data-name="Grupo 5" transform="translate(305.71 347.552)"><path id="Caminho_28" data-name="Caminho 28" d="M498.8,430.9" transform="translate(-488.917 -430.9)" fill="#285531"></path><path id="Caminho_29" data-name="Caminho 29" d="M429.941,431.183a2.585,2.585,0,0,0-.487,1.643v8.984c0,2.5-2.556,4.5-5.661,4.5s-5.661-2.021-5.661-4.5v-8.85a1.7,1.7,0,0,0,0-.28v-.024a2.45,2.45,0,0,0-.487-1.473.1.1,0,0,1,.073-.183h.414c2.459.037,3.214.791,3.214,2.362v8.059h.012a3.07,3.07,0,0,0,6.123-.316l.012.049v-8.619A1.535,1.535,0,0,1,429.028,431h.426v.012h.414A.1.1,0,0,1,429.941,431.183Z" transform="translate(-417.611 -430.988)" fill="#285531"></path><path id="Caminho_30" data-name="Caminho 30" d="M421.9,445.08v0Z" transform="translate(-421.378 -443.108)" fill="#285531"></path><g id="Grupo_4" data-name="Grupo 4" transform="translate(3.724 10.274)"><path id="Caminho_31" data-name="Caminho 31" d="M448.212,515.458h0a.694.694,0,0,1-.012-.158A.749.749,0,0,1,448.212,515.458Z" transform="translate(-448.2 -515.3)" fill="#285531"></path></g><path id="Caminho_32" data-name="Caminho 32" d="M421.9,445.08v0Z" transform="translate(-421.378 -443.108)" fill="#285531"></path><path id="Caminho_33" data-name="Caminho 33" d="M514.961,446.046V445.9A.441.441,0,0,0,514.961,446.046Z" transform="translate(-503.106 -444.074)" fill="#285531"></path></g><path id="Caminho_34" data-name="Caminho 34" d="M529.061,437.99l1.351-3.177,1.351,3.177Zm2.118-8.351a.1.1,0,0,0-.183,0l-6.087,13.366a18.873,18.873,0,0,1-1.01,1.875,2.739,2.739,0,0,0,2.982-1.875l1.643-3.615h3.786l1.668,3.615c.706,1.339,1.436,1.85,4.115,1.875a.1.1,0,0,0,.085-.158c-.183-.3-.6-1.01-.925-1.716Z" transform="translate(-205.251 -82.184)" fill="#285531"></path></g></svg>